<svg width="750" height="500" viewBox="0 0 750 500" fill="none" xmlns="http://www.w3.org/2000/svg">
<rect width="750" height="500" fill="#EBEBEB"/>
<mask id="mask0_271_304" style="mask-type:alpha" maskUnits="userSpaceOnUse" x="334" y="205" width="109" height="109">
<rect x="334" y="205" width="109" height="109" fill="#D9D9D9"/>
</mask>
<g mask="url(#mask0_271_304)">
<path d="M344.8 289.937C342.389 289.937 340.325 289.079 338.608 287.362C336.891 285.645 336.032 283.581 336.032 281.17V219.796C336.032 217.385 336.891 215.32 338.608 213.603C340.325 211.886 342.389 211.028 344.8 211.028H406.174C408.585 211.028 410.649 211.886 412.366 213.603C414.083 215.32 414.942 217.385 414.942 219.796V281.17C414.942 283.581 414.083 285.645 412.366 287.362C410.649 289.079 408.585 289.937 406.174 289.937H344.8ZM344.8 281.17H406.174V219.796H344.8V281.17ZM349.184 272.402H401.79L385.351 250.483L372.199 268.018L362.336 254.866L349.184 272.402ZM360.144 241.715C361.97 241.715 363.523 241.076 364.801 239.797C366.08 238.518 366.719 236.966 366.719 235.139C366.719 233.313 366.08 231.76 364.801 230.481C363.523 229.203 361.97 228.563 360.144 228.563C358.317 228.563 356.764 229.203 355.486 230.481C354.207 231.76 353.568 233.313 353.568 235.139C353.568 236.966 354.207 238.518 355.486 239.797C356.764 241.076 358.317 241.715 360.144 241.715Z" fill="#C9C9C9"/>
</g>
</svg>
