<svg width="32" height="32" viewBox="0 0 32 32" fill="none" xmlns="http://www.w3.org/2000/svg">
  <style>
    #path-1, #path-2, #path-3 {
      fill: #171717
    }
    @media (prefers-color-scheme: dark) {
      #path-1, #path-2, #path-3 {
        fill: white;
      }
    }
  </style>
  <path id="path-1" d="M6.83147 21.1657V10.2857H8.70347L13.2635 17.3897L13.9515 18.6697L13.9035 10.2857H15.6955V21.1657H13.8235L9.27947 14.0937L8.57547 12.7657L8.62347 21.1657H6.83147Z" />
  <path id="path-2" d="M17.2346 21.1657V10.2857H21.2346C23.5386 10.2857 24.9946 11.4217 24.9946 13.2457C24.9946 14.2537 24.4826 15.0377 23.5386 15.4377C24.8826 15.8377 25.6026 16.7817 25.6026 18.0617C25.6026 20.0297 24.1786 21.1657 21.7786 21.1657H17.2346ZM21.1866 11.7097H19.0266V14.9097H21.1546C22.4346 14.9097 23.1546 14.2697 23.1546 13.3417C23.1546 12.3337 22.4186 11.7097 21.1866 11.7097ZM21.5546 16.3017H19.0266V19.7417H21.7306C22.9946 19.7417 23.7626 19.0537 23.7626 18.0137C23.7626 16.9737 22.9466 16.3017 21.5546 16.3017Z" />
  <path id="path-3" d="M30.2857 16C30.2857 8.11022 23.8898 1.71429 16 1.71429C8.11022 1.71429 1.71429 8.11022 1.71429 16C1.71429 23.8898 8.11022 30.2857 16 30.2857V32C7.16344 32 0 24.8366 0 16C0 7.16344 7.16344 0 16 0C24.8366 0 32 7.16344 32 16C32 24.8366 24.8366 32 16 32V30.2857C23.8898 30.2857 30.2857 23.8898 30.2857 16Z" />
</svg>
